<?xml version="1.0" encoding="UTF-8" standalone="no"?>
<!-- Created with Inkscape (http://www.inkscape.org/) -->

<svg
   width="59.68951mm"
   height="63.8437mm"
   viewBox="0 0 59.68951 63.8437"
   version="1.1"
   id="svg5"
   xmlns="http://www.w3.org/2000/svg"
   xmlns:svg="http://www.w3.org/2000/svg">
  <defs
     id="defs2" />
  <g
     id="layer1"
     transform="translate(-125.61595,-65.268166)">
    <g
       id="g517"
       transform="matrix(0.64176162,-0.06350431,0.06350431,0.64176162,119.59225,67.923442)">
      <path
         d="M 50,100 C 76.371,100 96.25,82.891 96.25,60.211 96.25,42.25 89.3203,29.039 76.75,23.02 69.5781,16.2388 57.602,17.5786 52.398,18.5903 51.76909,14.0395 49.5464,7.2113 42.5191,0.3093 42.19098,-0.01883 41.69098,-0.08914 41.2691,0.11789 l -5.3008,2.7109 c -0.35156,0.17969 -0.57031,0.53125 -0.58984,0.92969 -0.01172,0.39063 0.19141,0.76172 0.53125,0.96094 0.08984,0.050781 7.2188,4.3711 10.52,13.66 -5.9883,-1.0312 -16.629,-1.6797 -23.238,4.6719 -12.543,6.0273 -19.441,19.219 -19.441,37.16 0,22.68 19.879,39.789 46.25,39.789 z"
         id="path41910"
         class="UnoptimicedTransforms"
         style="fill:#ff0000" />
      <path
         d="M 50,100 C 76.371,100 96.25,82.891 96.25,60.211 96.25,42.25 89.3203,29.039 76.75,23.02 69.5781,16.2388 57.602,17.5786 52.398,18.5903 51.76909,14.0395 49.5464,7.2113 42.5191,0.3093 42.19098,-0.01883 41.69098,-0.08914 41.2691,0.11789 l -5.3008,2.7109 c -0.35156,0.17969 -0.57031,0.53125 -0.58984,0.92969 -0.01172,0.39063 0.19141,0.76172 0.53125,0.96094 0.08984,0.050781 7.2188,4.3711 10.52,13.66 -5.9883,-1.0312 -16.629,-1.6797 -23.238,4.6719 -12.543,6.0273 -19.441,19.219 -19.441,37.16 0,22.68 19.879,39.789 46.25,39.789 z M 38.57,3.93 l 3,-1.5312 c 7.6484,7.8008 8.8516,15.301 8.8984,19.02 -0.32812,0 -0.67969,0 -0.98047,0.01953 -0.12891,-0.60156 -0.26953,-1.1914 -0.42969,-1.7695 -0.01172,-0.08984 -0.03125,-0.17188 -0.05859,-0.25 -2.4219,-8.4688 -7.7617,-13.457 -10.43,-15.488 z m 8.5586,16.77 c 0.08984,0.35156 0.16016,0.71094 0.23828,1.0703 -1.0586,0.28125 -1.6484,0.64062 -1.7695,0.71875 -0.48047,0.33984 -0.60156,0.98828 -0.26953,1.4805 0.21094,0.30859 0.55078,0.46875 0.89844,0.46875 0.19922,0 0.41016,-0.05859 0.58984,-0.17188 0.01953,-0.01172 2.4414,-1.5195 8.25,-0.14062 0.57812,0.14062 1.1602,-0.21875 1.3008,-0.80078 0.14062,-0.57812 -0.21875,-1.1602 -0.80078,-1.3008 -1.0898,-0.26172 -2.0508,-0.39844 -2.9414,-0.5 0,-0.25 -0.01172,-0.51172 -0.01953,-0.78906 5.3203,-1.0703 19.039,-2.75 24.898,6.4297 -3.9805,-1.4102 -11.512,-3.6484 -17.18,-2.7812 -0.44922,0.07031 -0.80078,0.41016 -0.89062,0.85156 -0.08984,0.4414 0.10938,0.89844 0.48828,1.1289 0.30859,0.19141 7.5898,4.7695 6.8203,13.16 -2,-3.7617 -6.7891,-10.422 -16.48,-12.891 -0.17188,-0.03906 -0.35938,-0.03906 -0.53125,0 -9.6914,2.4609 -14.48,9.1289 -16.43,12.91 -0.80859,-8.4102 6.4688,-12.988 6.7812,-13.18 0.39062,-0.23828 0.57812,-0.69141 0.48828,-1.1289 -0.08984,-0.44141 -0.44922,-0.78125 -0.89062,-0.85156 -5.6719,-0.87109 -13.199,1.3711 -17.16,2.8281 5.8008,-9.1797 19.602,-7.4805 24.609,-6.5117 z m -26.738,6.4492 c -0.01172,0.48828 0.12891,0.96875 0.44922,1.3789 0.57812,0.71875 1.5117,0.98047 2.3711,0.67969 3.1602,-1.1211 8.6484,-2.7891 13.41,-2.8516 -2.5195,2.3203 -6.1094,6.8398 -5.4688,13.422 0.08984,0.94141 0.78125,1.6992 1.7109,1.8789 0.14062,0.03125 0.28125,0.03906 0.42188,0.03906 0.78906,0 1.5117,-0.42969 1.8789,-1.1406 1.8086,-3.4102 6.1289,-9.4297 14.84,-11.738 8.7109,2.3086 13.031,8.3281 14.828,11.73 0.44141,0.83984 1.3594,1.2891 2.3008,1.1094 0.92969,-0.17969 1.6211,-0.94141 1.7109,-1.8789 0.62891,-6.5703 -2.9492,-11.09 -5.4688,-13.422 4.75,0.05859 10.25,1.7305 13.41,2.8516 0.87109,0.30859 1.8008,0.03906 2.3711,-0.69141 0.32031,-0.41016 0.46094,-0.89062 0.44922,-1.3789 9.3711,6.3594 14.488,17.898 14.488,33.059 0,21.461 -18.961,37.641 -44.102,37.641 -25.141,0 -44.102,-16.18 -44.102,-37.641 0.00781,-15.145 5.1289,-26.684 14.5,-33.047 z"
         id="path41779"
         class="UnoptimicedTransforms" />
      <path
         style="fill:#008000;stroke-width:0.17132"
         d="m 43.700267,29.579768 c -4.922932,0.08836 -10.212094,1.1391 -13.952243,4.557876 -0.842136,0.895224 -1.951155,1.688813 -2.384706,2.872786 0.207467,0.888427 1.216896,0.0201 1.740889,-0.02031 4.204643,-1.230674 8.508464,-2.515061 12.927365,-2.364118 0.976479,0.146919 2.234489,-0.300155 3.025535,0.44068 0.626962,0.696282 -0.578349,1.176376 -0.960328,1.57099 -3.894875,2.893741 -6.519178,7.675468 -6.156805,12.598697 0.198418,1.411375 1.167266,-0.261613 1.408989,-0.845683 2.641916,-4.220036 6.376229,-7.792675 10.96117,-9.797894 1.572274,-0.695228 3.243896,-1.447175 4.927899,-1.654622 5.177735,1.436175 9.994062,4.319544 13.357144,8.559947 1.050867,1.16103 1.714703,2.617806 2.78495,3.749293 0.842919,0.328826 0.750117,-0.935687 0.697154,-1.424947 -0.09195,-4.772667 -3.088746,-9.058686 -6.897125,-11.734889 -0.683081,-0.4081 -0.326753,-1.422788 0.469458,-1.363197 4.875862,-0.621976 9.824071,0.641178 14.494592,2.023046 0.787229,0.105472 1.681646,0.836458 2.442311,0.448042 0.199089,-0.854989 -0.845834,-1.453289 -1.26315,-2.100676 -3.384044,-3.708207 -8.546992,-5.324471 -13.453266,-5.436565 -3.415397,0.0022 -6.942866,-0.1652 -10.246083,0.822977 -0.697728,0.455967 -0.206331,1.581826 0.613337,1.485998 0.893266,0.268245 2.251003,0.05583 2.774579,0.990778 0.06053,0.70978 -0.799105,1.091884 -1.384055,0.721481 -2.706206,-0.592703 -5.596141,-0.67542 -8.227589,0.286695 -0.81508,0.35046 -1.281191,-0.998667 -0.440011,-1.25378 0.63695,-0.378022 2.02106,-0.598821 1.595416,-1.644268 -0.349471,-1.13894 -1.88193,-0.834377 -2.779262,-1.098521 -2.013281,-0.267678 -4.044498,-0.415665 -6.076165,-0.38982 z"
         id="path41981"
         transform="translate(-5,-10)" />
      <path
         style="fill:#008000;stroke-width:0.17132"
         d="m 46.436699,12.063323 c -0.97307,0.564576 -2.11594,0.913998 -2.96932,1.653303 0.04192,0.902183 1.158958,1.348923 1.649623,2.042118 4.41184,4.112222 7.679658,9.496791 8.972205,15.410082 0.185487,0.951707 2.167334,0.863309 1.692852,-0.270857 -0.301576,-7.149017 -4.095589,-13.674127 -8.928437,-18.756348 -0.139408,-0.02106 -0.265136,-0.200807 -0.416923,-0.0783 z"
         id="path41983"
         transform="translate(-5,-10)" />
    </g>
  </g>
</svg>
